<svg width="96" height="96" viewBox="0 0 96 96" fill="none" xmlns="http://www.w3.org/2000/svg">
<path opacity="0.35" fill-rule="evenodd" clip-rule="evenodd" d="M68 48C68 66.6384 55.2523 82.2994 38 86.7398C20.7477 82.2994 8 66.6384 8 48C8 29.3616 20.7477 13.7006 38 9.26016C46.9893 11.5738 54.7556 16.9338 60.1329 24.174C60.7378 24.0598 61.3619 24 62 24C67.5229 24 72 28.4772 72 34C72 37.4499 70.253 40.4918 67.5954 42.2892C67.8621 44.1544 68 46.0611 68 48ZM36 34C36 37.3137 33.3137 40 30 40C26.6863 40 24 37.3137 24 34C24 30.6863 26.6863 28 30 28C33.3137 28 36 30.6863 36 34ZM38 68C43.5228 68 48 63.5228 48 58C48 52.4772 43.5228 48 38 48C32.4772 48 28 52.4772 28 58C28 63.5228 32.4772 68 38 68Z" fill="black"/>
<circle cx="30" cy="34" r="6" fill="black"/>
<circle cx="38" cy="58" r="10" fill="black"/>
<path fill-rule="evenodd" clip-rule="evenodd" d="M88 48C88 70.0914 70.0914 88 48 88C44.547 88 41.1962 87.5625 38 86.7398C55.2523 82.2994 68 66.6384 68 48C68 46.0611 67.8621 44.1544 67.5954 42.2892C70.253 40.4918 72 37.4499 72 34C72 28.4772 67.5229 24 62 24C61.3619 24 60.7378 24.0598 60.1329 24.174C54.7556 16.9338 46.9893 11.5738 38 9.26016C41.1962 8.43752 44.547 8 48 8C70.0914 8 88 25.9086 88 48ZM76 64C78.2091 64 80 62.2091 80 60C80 57.7909 78.2091 56 76 56C73.7909 56 72 57.7909 72 60C72 62.2091 73.7909 64 76 64Z" fill="black"/>
<circle opacity="0.35" cx="76" cy="60" r="4" fill="black"/>
</svg>
