<svg width="96" height="96" viewBox="0 0 96 96" fill="none" xmlns="http://www.w3.org/2000/svg">
<path opacity="0.35" fill-rule="evenodd" clip-rule="evenodd" d="M43.7 4.772C44.464 3.084 46.148 2 48 2C49.852 2 51.536 3.084 52.3 4.772L56.968 15.084C57.628 16.544 58.82 17.696 60.3 18.308C61.78 18.92 63.436 18.948 64.936 18.384L75.528 14.396C77.264 13.744 79.22 14.164 80.528 15.476C81.84 16.788 82.26 18.744 81.608 20.476L77.62 31.068C77.056 32.568 77.084 34.224 77.696 35.704C78.308 37.184 79.46 38.372 80.92 39.036L91.232 43.704C92.916 44.464 94 46.148 94 48C94 49.852 92.916 51.536 91.228 52.3L80.916 56.968C79.456 57.628 78.304 58.82 77.692 60.3C77.08 61.78 77.052 63.436 77.616 64.936L81.604 75.528C82.256 77.264 81.836 79.22 80.524 80.528C79.212 81.84 77.256 82.26 75.524 81.608L64.932 77.62C63.432 77.056 61.776 77.084 60.296 77.696C58.816 78.308 57.628 79.46 56.964 80.92L52.296 91.232C51.536 92.916 49.852 94 48 94C46.148 94 44.464 92.916 43.7 91.228L39.032 80.916C38.372 79.456 37.18 78.304 35.7 77.692C34.22 77.08 32.564 77.052 31.064 77.616L20.472 81.604C18.736 82.256 16.78 81.836 15.472 80.524C14.164 79.212 13.74 77.256 14.392 75.524L18.38 64.932C18.944 63.432 18.916 61.776 18.304 60.296C17.692 58.816 16.54 57.628 15.08 56.964L4.768 52.296C3.084 51.536 2 49.852 2 48C2 46.148 3.084 44.464 4.772 43.7L15.084 39.032C16.544 38.372 17.696 37.18 18.308 35.7C18.92 34.22 18.948 32.564 18.384 31.064L14.392 20.472C13.74 18.736 14.16 16.78 15.472 15.472C16.784 14.16 18.74 13.74 20.472 14.392L31.064 18.38C32.564 18.948 34.22 18.92 35.7 18.308C37.18 17.696 38.368 16.544 39.032 15.084L43.7 4.772Z" fill="black"/>
<path d="M68.024 48.032C68.024 59.076 59.068 68.032 48.024 68.032C36.98 68.032 28.024 59.076 28.024 48.032C28.024 36.988 36.98 28.032 48.024 28.032C59.068 28.032 68.024 36.992 68.024 48.032Z" fill="black"/>
</svg>
